<svg width="201" height="60" viewBox="0 0 201 60" fill="none" xmlns="http://www.w3.org/2000/svg">
<path d="M196.313 1H4.28163C2.46924 1 1 2.46751 1 4.27778V55.0833C1 56.8936 2.46924 58.3611 4.28163 58.3611H196.313C198.125 58.3611 199.595 56.8936 199.595 55.0833V4.27778C199.595 2.46751 198.125 1 196.313 1Z" stroke="black" stroke-width="2"/>
<path d="M47.6026 28.3025C47.5647 23.7651 51.3236 21.5534 51.4986 21.4546C49.368 18.3537 46.0656 17.9281 44.9014 17.8976C42.124 17.6089 39.4379 19.5546 38.0227 19.5546C36.5845 19.5546 34.4082 17.9281 32.057 17.9737C29.0361 18.0193 26.213 19.7674 24.6684 22.4731C21.4725 27.9985 23.8542 36.1156 26.9207 40.5846C28.4501 42.7735 30.2384 45.2133 32.582 45.1296C34.8724 45.0384 35.7322 43.6703 38.4944 43.6703C41.2337 43.6703 42.0403 45.1296 44.4296 45.0764C46.8874 45.0384 48.4397 42.8799 49.9159 40.6758C51.6889 38.1678 52.3965 35.6976 52.427 35.576C52.3661 35.538 47.6483 33.7368 47.6026 28.3025ZM43.0904 14.9563C44.3231 13.4135 45.1677 11.3234 44.9318 9.19531C43.1513 9.27127 40.9141 10.4265 39.6357 11.9314C38.502 13.2615 37.4823 15.4351 37.7487 17.4796C39.7423 17.624 41.8044 16.4688 43.0904 14.9563Z" fill="black"/>
<path d="M80.7954 44.8011H77.5919L75.8342 39.2984H69.7391L68.0651 44.8011H64.9453L70.987 26.0587H74.7156L80.7954 44.8011ZM75.3091 36.9879L73.7188 32.0934C73.5514 31.5917 73.2318 30.4137 72.7752 28.5592H72.722C72.5393 29.3573 72.235 30.5353 71.8317 32.0934L70.2718 36.9879H75.3091ZM96.3034 37.8772C96.3034 40.1726 95.6791 41.989 94.4313 43.3267C93.3122 44.5123 91.92 45.1051 90.2611 45.1051C88.4653 45.1051 87.1797 44.4667 86.3962 43.1898V50.281H83.3902V35.7263C83.3902 34.2823 83.3525 32.8002 83.2762 31.2877H85.9236L86.0918 33.4311H86.1443C87.1493 31.8198 88.6712 31.0065 90.7099 31.0065C92.3081 31.0065 93.6396 31.6374 94.7053 32.899C95.7702 34.1607 96.3034 35.8252 96.3034 37.8772ZM93.2441 37.9912C93.2441 36.6764 92.9472 35.5896 92.354 34.7383C91.7067 33.8491 90.8321 33.4082 89.7361 33.4082C88.9985 33.4082 88.3209 33.659 87.7195 34.1455C87.119 34.6395 86.7227 35.2856 86.5406 36.0759C86.4569 36.3724 86.411 36.6839 86.4036 36.9879V39.2453C86.4036 40.2257 86.708 41.0541 87.3093 41.7382C87.9099 42.4146 88.6942 42.7566 89.6598 42.7566C90.7936 42.7566 91.6763 42.3158 92.3081 41.4494C92.9242 40.5678 93.2441 39.4201 93.2441 37.9912ZM111.872 37.8772C111.872 40.1726 111.248 41.989 109.999 43.3267C108.881 44.5123 107.489 45.1051 105.83 45.1051C104.034 45.1051 102.748 44.4667 101.964 43.1898V50.281H98.9583V35.7263C98.9583 34.2823 98.9206 32.8002 98.8443 31.2877H101.493L101.66 33.4311H101.713C102.717 31.8198 104.239 31.0065 106.279 31.0065C107.877 31.0065 109.208 31.6374 110.273 32.899C111.332 34.1607 111.872 35.8252 111.872 37.8772ZM108.805 37.9912C108.805 36.6764 108.509 35.5896 107.915 34.7383C107.268 33.8491 106.393 33.4082 105.298 33.4082C104.559 33.4082 103.882 33.659 103.273 34.1455C102.672 34.6395 102.276 35.2856 102.094 36.0759C102.002 36.4483 101.949 36.7524 101.949 36.9879V39.2453C101.949 40.2257 102.254 41.0541 102.854 41.7382C103.456 42.4146 104.239 42.7566 105.214 42.7566C106.347 42.7566 107.23 42.3158 107.861 41.4494C108.493 40.5678 108.805 39.4201 108.805 37.9912ZM129.274 39.5493C129.274 41.1454 128.719 42.445 127.608 43.4407C126.39 44.5351 124.678 45.0823 122.494 45.0823C120.478 45.0823 118.857 44.6947 117.632 43.9118L118.324 41.4114C119.641 42.1942 121.094 42.5818 122.669 42.5818C123.803 42.5818 124.685 42.3234 125.317 41.8141C125.949 41.3049 126.268 40.621 126.268 39.7697C126.268 39.0097 126.002 38.3712 125.485 37.8468C124.967 37.33 124.107 36.8436 122.898 36.4028C119.61 35.1791 117.966 33.3854 117.966 31.037C117.966 29.5017 118.545 28.24 119.709 27.2596C120.866 26.2791 122.403 25.7852 124.32 25.7852C126.025 25.7852 127.448 26.0816 128.582 26.6743L127.828 29.1217C126.763 28.5441 125.568 28.2628 124.221 28.2628C123.164 28.2628 122.327 28.5212 121.733 29.038C121.231 29.5017 120.98 30.0641 120.98 30.733C120.98 31.4701 121.269 32.0858 121.848 32.5646C122.35 33.0054 123.255 33.4919 124.571 34.0087C126.184 34.6623 127.371 35.4147 128.133 36.2888C128.893 37.1628 129.274 38.2496 129.274 39.5493ZM139.242 33.545H135.924V40.1041C135.924 41.7762 136.51 42.6046 137.682 42.6046C138.222 42.6046 138.664 42.559 139.021 42.4678L139.105 44.7479C138.512 44.9684 137.736 45.0823 136.769 45.0823C135.582 45.0823 134.653 44.7175 133.984 43.9955C133.315 43.2734 132.98 42.0574 132.98 40.355V33.545H131.009V31.2953H132.98V28.8177L135.932 27.9284V31.2953H139.249L139.242 33.545ZM154.164 37.938C154.164 40.0129 153.57 41.723 152.383 43.0531C151.143 44.4287 149.492 45.1127 147.43 45.1127C145.443 45.1127 143.861 44.4515 142.681 43.1443C141.502 41.8294 140.916 40.1649 140.916 38.1661C140.916 36.0684 141.525 34.3583 142.743 33.0206C143.96 31.6829 145.596 31.0217 147.658 31.0217C149.644 31.0217 151.242 31.6829 152.444 32.9978C153.585 34.2671 154.164 35.9164 154.164 37.938ZM151.044 38.0064C151.044 36.7676 150.778 35.7035 150.237 34.8219C149.606 33.7502 148.708 33.2106 147.536 33.2106C146.334 33.2106 145.406 33.7502 144.781 34.8219C144.242 35.7111 143.975 36.7904 143.975 38.0672C143.975 39.3061 144.242 40.3701 144.781 41.2594C145.429 42.331 146.342 42.8707 147.513 42.8707C148.663 42.8707 149.56 42.3234 150.215 41.2366C150.77 40.3169 151.044 39.2453 151.044 38.0064ZM163.942 33.9326C163.629 33.8795 163.31 33.8491 162.99 33.8491C161.933 33.8491 161.119 34.2443 160.541 35.0423C160.038 35.7491 159.787 36.6384 159.787 37.71V44.8011H156.781V35.5439C156.781 34.1227 156.759 32.709 156.698 31.2877H159.316L159.422 33.8718H159.505C159.825 32.9826 160.32 32.2682 161.012 31.7286C161.636 31.2573 162.405 31.0065 163.188 31.0065C163.47 31.0065 163.713 31.0294 163.942 31.0598V33.9326ZM177.388 37.406C177.395 37.862 177.356 38.3181 177.281 38.7665H168.257C168.287 40.1041 168.728 41.1225 169.565 41.8294C170.326 42.4602 171.308 42.7718 172.518 42.7718C173.857 42.7718 175.074 42.559 176.17 42.1334L176.642 44.2159C175.363 44.7707 173.849 45.0519 172.107 45.0519C170.006 45.0519 168.362 44.4363 167.16 43.2051C165.966 41.9738 165.365 40.3169 165.365 38.242C165.365 36.2051 165.92 34.5103 167.039 33.1575C168.203 31.7133 169.786 30.9913 171.772 30.9913C173.72 30.9913 175.196 31.7133 176.201 33.1575C176.984 34.3051 177.388 35.7187 177.388 37.406ZM174.519 36.6308C174.542 35.7416 174.344 34.9739 173.933 34.3202C173.415 33.4842 172.609 33.0662 171.536 33.0662C170.554 33.0662 169.755 33.4766 169.138 34.2898C168.636 34.9359 168.34 35.7187 168.248 36.6232L174.519 36.6308Z" fill="black"/>
<path d="M68.872 19.4382C68.035 19.4382 67.3121 19.4001 66.7109 19.3317V10.2646C67.5556 10.1353 68.4079 10.0669 69.2601 10.0745C72.7071 10.0745 74.2974 11.7694 74.2974 14.5283C74.2898 17.7128 72.4179 19.4382 68.872 19.4382ZM69.3818 11.2374C68.9177 11.2374 68.522 11.2678 68.1948 11.3361V18.2221C68.3698 18.2525 68.7122 18.26 69.1916 18.26C71.4515 18.26 72.7375 16.9756 72.7375 14.5739C72.7299 12.4231 71.5657 11.2374 69.3818 11.2374ZM79.2434 19.5065C77.3031 19.5065 76.0399 18.0548 76.0399 16.0864C76.0399 14.0342 77.3259 12.5751 79.35 12.5751C81.2674 12.5751 82.5537 13.9583 82.5537 15.9799C82.5537 18.0548 81.2295 19.5065 79.2434 19.5065ZM79.2967 13.6543C78.2314 13.6543 77.5466 14.6499 77.5466 16.0484C77.5466 17.4164 78.2466 18.412 79.2815 18.412C80.324 18.412 81.0164 17.348 81.0164 16.018C81.0239 14.6651 80.3391 13.6543 79.2967 13.6543ZM93.6325 12.7118L91.5552 19.3545H90.2007L89.3409 16.474C89.1276 15.7671 88.9455 15.0527 88.8085 14.3307H88.7781C88.6715 15.0527 88.4655 15.7824 88.2448 16.474L87.3317 19.3545H85.9625L84.0066 12.7118H85.5285L86.2816 15.8659C86.4572 16.6184 86.609 17.3252 86.7312 18.0017H86.7615C86.8682 17.4392 87.0503 16.7476 87.3096 15.8812L88.253 12.7118H89.455L90.3607 15.8128C90.5814 16.5652 90.7561 17.3024 90.8931 18.0017H90.9309C91.0301 17.3176 91.1745 16.5956 91.3804 15.8128L92.1869 12.7118H93.6325ZM101.295 19.3545H99.8192V15.5392C99.8192 14.3611 99.3696 13.7759 98.4794 13.7759C97.6049 13.7759 97.0035 14.5283 97.0035 15.4023V19.3545H95.5276V14.6119C95.5276 14.0267 95.512 13.3959 95.4743 12.7118H96.7754L96.8435 13.7378H96.8813C97.2775 13.0311 98.084 12.5751 98.9897 12.5751C100.382 12.5751 101.302 13.6391 101.302 15.3795L101.295 19.3545ZM105.366 19.3545H103.89V9.66406H105.366V19.3545ZM110.761 19.5065C108.821 19.5065 107.557 18.0548 107.557 16.0864C107.557 14.0342 108.844 12.5751 110.868 12.5751C112.785 12.5751 114.071 13.9583 114.071 15.9799C114.071 18.0548 112.74 19.5065 110.761 19.5065ZM110.814 13.6543C109.749 13.6543 109.064 14.6499 109.064 16.0484C109.064 17.4164 109.764 18.412 110.799 18.412C111.841 18.412 112.534 17.348 112.534 16.018C112.534 14.6651 111.857 13.6543 110.814 13.6543ZM119.899 19.3545L119.793 18.5868H119.755C119.306 19.2025 118.644 19.4989 117.807 19.4989C116.612 19.4989 115.768 18.6629 115.768 17.5456C115.768 15.904 117.19 15.0603 119.656 15.0603V14.9387C119.656 14.0646 119.192 13.6239 118.279 13.6239C117.624 13.6239 117.046 13.7911 116.544 14.1179L116.247 13.1451C116.864 12.765 117.632 12.5674 118.53 12.5674C120.265 12.5674 121.147 13.4795 121.147 15.3111V17.7585C121.147 18.4273 121.178 18.9516 121.247 19.3469L119.899 19.3545ZM119.694 16.0484C118.05 16.0484 117.229 16.4436 117.229 17.386C117.229 18.0852 117.655 18.4273 118.241 18.4273C118.995 18.4273 119.694 17.8572 119.694 17.0744V16.0484ZM128.308 19.3545L128.24 18.2904H128.201C127.775 19.0961 127.06 19.5065 126.063 19.5065C124.458 19.5065 123.271 18.1005 123.271 16.1168C123.271 14.0419 124.504 12.5751 126.185 12.5751C127.076 12.5751 127.706 12.8715 128.057 13.4795H128.087V9.66406H129.563V17.5608C129.563 18.1992 129.579 18.8073 129.616 19.3469H128.308V19.3545ZM128.095 15.4479C128.095 14.5207 127.478 13.7227 126.535 13.7227C125.439 13.7227 124.769 14.6955 124.769 16.056C124.769 17.3936 125.462 18.3133 126.505 18.3133C127.432 18.3133 128.095 17.5076 128.095 16.55V15.4479ZM138.953 19.5065C137.013 19.5065 135.75 18.0548 135.75 16.0864C135.75 14.0342 137.035 12.5751 139.06 12.5751C140.977 12.5751 142.263 13.9583 142.263 15.9799C142.263 18.0548 140.94 19.5065 138.953 19.5065ZM139.007 13.6543C137.941 13.6543 137.256 14.6499 137.256 16.0484C137.256 17.4164 137.957 18.412 138.991 18.412C140.034 18.412 140.726 17.348 140.726 16.018C140.734 14.6651 140.049 13.6543 139.007 13.6543ZM150.215 19.3545H148.738V15.5392C148.738 14.3611 148.29 13.7759 147.4 13.7759C146.524 13.7759 145.924 14.5283 145.924 15.4023V19.3545H144.447V14.6119C144.447 14.0267 144.432 13.3959 144.394 12.7118H145.695L145.764 13.7378H145.801C146.198 13.0311 147.004 12.5751 147.909 12.5751C149.302 12.5751 150.223 13.6391 150.223 15.3795V19.3545H150.215ZM160.153 13.8214H158.524V17.044C158.524 17.8648 158.806 18.2753 159.384 18.2753C159.643 18.2753 159.863 18.2449 160.039 18.2069L160.076 19.3241C159.788 19.4305 159.407 19.4913 158.928 19.4913C157.763 19.4913 157.063 18.8529 157.063 17.1656V13.8139H156.089V12.7042H157.063V11.4881L158.517 11.0474V12.7042H160.145L160.153 13.8214ZM167.983 19.3545H166.506V15.5696C166.506 14.3839 166.057 13.7835 165.167 13.7835C164.398 13.7835 163.691 14.3003 163.691 15.3567V19.3621H162.214V9.66406H163.691V13.6543H163.722C164.186 12.9323 164.863 12.5751 165.723 12.5751C167.13 12.5751 167.99 13.6694 167.99 15.4023L167.983 19.3545ZM175.995 16.3904H171.559C171.589 17.6445 172.419 18.3589 173.652 18.3589C174.306 18.3589 174.914 18.2525 175.447 18.0472L175.676 19.0733C175.044 19.3469 174.306 19.4837 173.446 19.4837C171.369 19.4837 170.136 18.1688 170.136 16.1396C170.136 14.1027 171.399 12.5751 173.279 12.5751C174.975 12.5751 176.041 13.8291 176.041 15.7292C176.056 15.942 176.041 16.17 175.995 16.3904ZM174.64 15.334C174.64 14.3079 174.124 13.5858 173.18 13.5858C172.328 13.5858 171.658 14.3231 171.566 15.334H174.64Z" fill="black"/>
</svg>
