<svg width="201" height="60" viewBox="0 0 201 60" fill="none" xmlns="http://www.w3.org/2000/svg">
<path d="M196.313 1H4.28163C2.46924 1 1 2.46751 1 4.27778V55.0833C1 56.8936 2.46924 58.3611 4.28163 58.3611H196.313C198.125 58.3611 199.595 56.8936 199.595 55.0833V4.27778C199.595 2.46751 198.125 1 196.313 1Z" stroke="black" stroke-width="2"/>
<path d="M72.0615 15.6298C72.0615 16.7588 71.779 17.7468 71.0725 18.4524C70.2247 19.2991 69.2357 19.7225 67.9641 19.7225C66.6924 19.7225 65.7033 19.2991 64.8556 18.4524C64.0079 17.6056 63.584 16.6177 63.584 15.3476C63.584 14.0775 64.0079 13.0896 64.8556 12.2428C65.7033 11.3961 66.6924 10.9727 67.9641 10.9727C68.5292 10.9727 69.0944 11.1138 69.6595 11.3961C70.2247 11.6783 70.6486 11.9606 70.9311 12.3839L70.2247 13.0895C69.6595 12.3839 68.9531 12.1017 67.9641 12.1017C67.1162 12.1017 66.2685 12.3839 65.7033 13.0895C64.9969 13.654 64.7143 14.5009 64.7143 15.4887C64.7143 16.4766 64.9969 17.3233 65.7033 17.8879C66.4098 18.4524 67.1162 18.8757 67.9641 18.8757C68.9531 18.8757 69.6595 18.5935 70.366 17.8879C70.7899 17.4645 71.0725 16.8999 71.0725 16.1943H67.9641V15.2065H72.0615C72.0615 15.2065 72.0615 15.3476 72.0615 15.6298Z" fill="black" stroke="black" stroke-width="0.2" stroke-miterlimit="10"/>
<path d="M78.5605 12.1017H74.7456V14.7831H78.2779V15.771H74.7456V18.4524H78.5605V19.4402H73.6152V10.9727H78.5605V12.1017Z" fill="black" stroke="black" stroke-width="0.2" stroke-miterlimit="10"/>
<path d="M83.2241 19.4402H82.0934V11.9606H79.6914V10.9727H85.6254V11.9606H83.2241V19.4402Z" fill="black" stroke="black" stroke-width="0.2" stroke-miterlimit="10"/>
<path d="M89.7227 19.4402V10.9727H90.8524V19.4402H89.7227Z" fill="black" stroke="black" stroke-width="0.2" stroke-miterlimit="10"/>
<path d="M95.6569 19.4402H94.5272V11.9606H92.125V10.9727H97.9179V11.9606H95.5157V19.4402H95.6569Z" fill="black" stroke="black" stroke-width="0.2" stroke-miterlimit="10"/>
<path d="M109.08 18.4524C108.233 19.2991 107.244 19.7225 105.972 19.7225C104.7 19.7225 103.712 19.2991 102.863 18.4524C102.016 17.6056 101.592 16.6177 101.592 15.3476C101.592 14.0775 102.016 13.0896 102.863 12.2428C103.712 11.3961 104.7 10.9727 105.972 10.9727C107.244 10.9727 108.233 11.3961 109.08 12.2428C109.928 13.0896 110.352 14.0775 110.352 15.3476C110.352 16.4766 109.928 17.6056 109.08 18.4524ZM103.712 17.7468C104.277 18.3113 105.124 18.7346 105.972 18.7346C106.82 18.7346 107.668 18.4524 108.233 17.7468C108.798 17.1822 109.222 16.3355 109.222 15.3476C109.222 14.3597 108.939 13.5129 108.233 12.9484C107.668 12.3839 106.82 11.9606 105.972 11.9606C105.124 11.9606 104.277 12.2428 103.712 12.9484C103.146 13.5129 102.722 14.3597 102.722 15.3476C102.722 16.1943 103.005 17.0411 103.712 17.7468Z" fill="black" stroke="black" stroke-width="0.2" stroke-miterlimit="10"/>
<path d="M111.906 19.4402V10.9727H113.178L117.275 17.6056V15.9121V10.9727H118.406V19.4402H117.275L112.895 12.5251V14.2186V19.4402H111.906Z" fill="black" stroke="black" stroke-width="0.2" stroke-miterlimit="10"/>
<path d="M101.309 31.8595C97.9183 31.8595 95.2339 34.3998 95.2339 37.9279C95.2339 41.315 97.9183 43.9963 101.309 43.9963C104.7 43.9963 107.385 41.4561 107.385 37.9279C107.385 34.3998 104.7 31.8595 101.309 31.8595ZM101.309 41.4561C99.4722 41.4561 97.9183 39.9037 97.9183 37.7868C97.9183 35.6699 99.4722 34.1175 101.309 34.1175C103.146 34.1175 104.7 35.5288 104.7 37.7868C104.7 40.0448 103.146 41.4561 101.309 41.4561ZM88.1686 31.8595C84.7778 31.8595 82.0934 34.3998 82.0934 37.9279C82.0934 41.315 84.7778 43.9963 88.1686 43.9963C91.5601 43.9963 94.2445 41.4561 94.2445 37.9279C94.2445 34.3998 91.5601 31.8595 88.1686 31.8595ZM88.1686 41.4561C86.3325 41.4561 84.7778 39.9037 84.7778 37.7868C84.7778 35.6699 86.3325 34.1175 88.1686 34.1175C90.0055 34.1175 91.5601 35.5288 91.5601 37.7868C91.5601 40.0448 90.0055 41.4561 88.1686 41.4561ZM72.4855 33.6941V36.2344H78.561C78.4197 37.6457 77.8546 38.7747 77.1481 39.4803C76.3004 40.327 74.8874 41.315 72.4855 41.315C68.6706 41.315 65.8447 38.3513 65.8447 34.5409C65.8447 30.7305 68.8119 27.7668 72.4855 27.7668C74.4636 27.7668 76.0178 28.6136 77.1481 29.6015L78.9849 27.7668C77.4307 26.3556 75.4526 25.2266 72.6268 25.2266C67.5402 25.2266 63.1602 29.4604 63.1602 34.5409C63.1602 39.6214 67.5402 43.8552 72.6268 43.8552C75.4526 43.8552 77.4307 43.0085 79.1262 41.1738C80.8217 39.4803 81.3868 37.0811 81.3868 35.2466C81.3868 34.682 81.3868 34.1175 81.2456 33.6941H72.4855ZM136.633 35.6699C136.067 34.2586 134.654 31.8595 131.546 31.8595C128.437 31.8595 125.894 34.2586 125.894 37.9279C125.894 41.315 128.437 43.9963 131.828 43.9963C134.513 43.9963 136.208 42.3029 136.774 41.315L134.796 39.9037C134.089 40.8916 133.241 41.5972 131.828 41.5972C130.415 41.5972 129.567 41.0327 128.861 39.7626L136.915 36.3755L136.633 35.6699ZM128.437 37.6457C128.437 35.3877 130.274 34.1175 131.546 34.1175C132.535 34.1175 133.524 34.682 133.806 35.3877L128.437 37.6457ZM121.796 43.4318H124.481V25.7911H121.796V43.4318ZM117.558 33.1296C116.851 32.424 115.721 31.7184 114.308 31.7184C111.341 31.7184 108.515 34.3998 108.515 37.7868C108.515 41.1739 111.2 43.7141 114.308 43.7141C115.721 43.7141 116.851 43.0085 117.416 42.3029H117.558V43.1496C117.558 45.4076 116.286 46.6777 114.308 46.6777C112.754 46.6777 111.623 45.5488 111.341 44.5609L109.08 45.5488C109.786 47.1011 111.482 49.0769 114.45 49.0769C117.558 49.0769 120.101 47.2422 120.101 42.8674V32.1418H117.558V33.1296ZM114.45 41.4561C112.613 41.4561 111.058 39.9037 111.058 37.7868C111.058 35.6699 112.613 34.1175 114.45 34.1175C116.286 34.1175 117.699 35.6699 117.699 37.7868C117.699 39.9037 116.286 41.4561 114.45 41.4561ZM148.925 25.7911H142.567V43.4318H145.251V36.7989H148.925C151.891 36.7989 154.718 34.682 154.718 31.295C154.718 27.9079 151.891 25.7911 148.925 25.7911ZM149.066 34.3998H145.251V28.3314H149.066C151.044 28.3314 152.174 30.0249 152.174 31.295C152.033 32.7063 150.903 34.3998 149.066 34.3998ZM165.315 31.8595C163.336 31.8595 161.358 32.7063 160.652 34.5409L163.054 35.5288C163.619 34.5409 164.467 34.2586 165.456 34.2586C166.869 34.2586 168.14 35.1055 168.281 36.5167V36.6578C167.858 36.3755 166.728 35.9522 165.597 35.9522C163.054 35.9522 160.511 37.3634 160.511 39.9037C160.511 42.3029 162.63 43.8552 164.891 43.8552C166.728 43.8552 167.575 43.0085 168.281 42.1618H168.423V43.573H170.966V36.7989C170.684 33.553 168.281 31.8595 165.315 31.8595ZM165.032 41.4561C164.184 41.4561 162.913 41.0327 162.913 39.9037C162.913 38.4925 164.467 38.0691 165.738 38.0691C166.869 38.0691 167.434 38.3514 168.14 38.6336C167.858 40.3271 166.445 41.4561 165.032 41.4561ZM179.867 32.1418L176.901 39.7626H176.76L173.651 32.1418H170.825L175.488 42.8674L172.803 48.7947H175.488L182.694 32.1418H179.867ZM156.13 43.4318H158.815V25.7911H156.13V43.4318Z" fill="black"/>
<path d="M19.0762 46.9593C18.5111 46.6771 18.2285 45.9715 18.2285 45.2658C18.2285 45.1247 18.2285 44.8424 18.2285 44.7013C18.2285 34.258 18.2285 23.8146 18.2285 13.5124C18.2285 12.9479 18.3698 12.5245 18.5111 11.96C18.6524 11.6777 18.935 11.3955 19.2176 11.1133C25.2931 17.1817 31.2274 23.2501 37.1617 29.3186C31.0861 34.9635 25.1519 40.8909 19.0762 46.9593Z" fill="black"/>
<path d="M43.0957 23.11C41.4002 24.8036 39.5633 26.497 37.8679 28.3317C32.2162 22.5455 26.4232 16.7593 20.7715 10.9731C20.7715 10.9731 20.7715 10.832 20.9128 10.832C28.26 14.9247 35.6072 19.0174 43.0957 23.11Z" fill="black"/>
<path d="M20.7715 46.9625C26.4232 41.3174 32.2162 35.6724 37.8679 30.0273C39.4221 31.5797 41.1176 33.1321 42.9544 34.8256C35.6072 38.9183 28.26 43.0109 20.9128 46.9625H20.7715Z" fill="black"/>
<path d="M43.9433 34.2602C42.1065 32.5668 40.411 30.8732 38.5742 29.1797C40.411 27.3451 42.2478 25.5104 44.0846 23.6758C44.6498 23.958 45.2149 24.2403 45.7801 24.6636C47.193 25.5104 48.7473 26.2161 50.1602 27.0628C50.5841 27.2039 50.8666 27.4862 51.1492 27.9095C51.7144 28.6151 51.7144 29.3209 51.1492 30.0265C50.8666 30.3087 50.5841 30.591 50.1602 30.7321C48.1821 32.0022 46.0627 33.1313 43.9433 34.2602Z" fill="black"/>
</svg>
