<svg width="48" height="48" viewBox="0 0 48 48" fill="none" xmlns="http://www.w3.org/2000/svg">
<path d="M18.9302 20.0789H24.0002V27.6789L31.6002 20.0789H39.2002V4.87891H18.9302V20.0789Z" fill="#F7A29E"/>
<path d="M13.8698 32.7494C16.6698 32.7494 18.9398 30.4794 18.9398 27.6794C18.9398 24.8794 16.6698 22.6094 13.8698 22.6094C11.0698 22.6094 8.7998 24.8794 8.7998 27.6794C8.7998 30.4794 11.0698 32.7494 13.8698 32.7494V32.7494Z" stroke="#EF5656" stroke-width="3" stroke-linecap="round" stroke-linejoin="round"/>
<path d="M6.27002 42.8773C6.27002 38.6773 9.67002 35.2773 13.87 35.2773C18.07 35.2773 21.47 38.6773 21.47 42.8773" stroke="#EF5656" stroke-width="3" stroke-linecap="round" stroke-linejoin="round"/>
<path d="M41.0601 25.1484C42.1201 26.9884 41.9201 29.3084 40.5501 30.9384C39.1801 32.5684 36.9401 33.1684 34.9401 32.4384C32.9401 31.7084 31.6101 29.8084 31.6001 27.6784" stroke="#EF5656" stroke-width="3" stroke-linecap="round" stroke-linejoin="round"/>
<path d="M29.0698 42.8773C29.0698 38.6773 32.4698 35.2773 36.6698 35.2773C40.8698 35.2773 44.2698 38.6773 44.2698 42.8773" stroke="#EF5656" stroke-width="3" stroke-linecap="round" stroke-linejoin="round"/>
<path d="M18.9302 20.0789H24.0002V27.6789L31.6002 20.0789H39.2002V4.87891H18.9302V20.0789Z" stroke="#EF5656" stroke-width="3" stroke-linecap="round" stroke-linejoin="round"/>
<path d="M24 9.94922H34.13" stroke="#EF5656" stroke-width="3" stroke-linecap="round" stroke-linejoin="round"/>
<path d="M24 15.0078H34.13" stroke="#EF5656" stroke-width="3" stroke-linecap="round" stroke-linejoin="round"/>
</svg>
