<svg width="48" height="48" viewBox="0 0 48 48" fill="none" xmlns="http://www.w3.org/2000/svg">
<path d="M29.0699 42.2414H18.9399L20.2099 34.9414H27.8099L29.0799 42.2414H29.0699Z" stroke="#EF5656" stroke-width="3" stroke-linecap="round" stroke-linejoin="round"/>
<path d="M15.1299 42.2422H32.8599" stroke="#EF5656" stroke-width="3" stroke-linecap="round" stroke-linejoin="round"/>
<path d="M5 10.8317C5 8.03172 7.27 5.76172 10.07 5.76172H37.94C40.74 5.76172 43.01 8.03172 43.01 10.8317V29.8817C43.01 32.6817 40.74 34.9517 37.94 34.9517H10.07C7.27 34.9517 5 32.6817 5 29.8817V10.8317Z" stroke="#EF5656" stroke-width="3" stroke-linecap="round" stroke-linejoin="round"/>
<path d="M12.6001 13.0625V27.6525" stroke="#EF5656" stroke-width="3" stroke-linecap="round" stroke-linejoin="round"/>
<path d="M27.7998 13.0625H35.3998V27.6525H27.7998V13.0625V13.0625Z" stroke="#EF5656" stroke-width="3" stroke-linecap="round" stroke-linejoin="round"/>
<path d="M20.2002 17.9219H27.8002V27.6519H20.2002V17.9219V17.9219Z" stroke="#EF5656" stroke-width="3" stroke-linecap="round" stroke-linejoin="round"/>
<path d="M12.6001 22.7812H20.2001V27.6412H12.6001V22.7812Z" stroke="#EF5656" stroke-width="3" stroke-linecap="round" stroke-linejoin="round"/>
<path d="M27.7998 13.0625H35.3998V27.6525H27.7998V13.0625Z" fill="#F7A29E" stroke="#EF5656" stroke-width="3" stroke-linecap="round" stroke-linejoin="round"/>
<path d="M12.6001 22.7812H20.2001V27.6412H12.6001V22.7812Z" fill="#F7A29E" stroke="#EF5656" stroke-width="3" stroke-linecap="round" stroke-linejoin="round"/>
</svg>
