<svg width="48" height="48" viewBox="0 0 48 48" fill="none" xmlns="http://www.w3.org/2000/svg">
<path d="M42.6602 14.5H4.66016V41.64H42.6602V14.5Z" fill="#F7A29E"/>
<path d="M39.9502 6.35938H7.37016C5.87346 6.35938 4.66016 7.57268 4.66016 9.06937V38.9394C4.66016 40.4361 5.87346 41.6494 7.37016 41.6494H39.9502C41.4468 41.6494 42.6602 40.4361 42.6602 38.9394V9.06937C42.6602 7.57268 41.4468 6.35938 39.9502 6.35938Z" stroke="#EF5656" stroke-width="3" stroke-linecap="round" stroke-linejoin="round"/>
<path d="M4.66016 14.5H42.6602" stroke="#EF5656" stroke-width="3" stroke-linecap="round" stroke-linejoin="round"/>
<path d="M4.66016 30.79H13.8402C14.8702 30.79 15.8102 30.21 16.2702 29.29L19.4802 22.86C19.8202 22.19 20.6302 21.92 21.3002 22.25C21.6202 22.41 21.8702 22.7 21.9802 23.04L25.3402 33.11C25.5802 33.82 26.3402 34.21 27.0602 33.97C27.4002 33.86 27.6802 33.61 27.8402 33.29L31.0602 26.86C31.5202 25.94 32.4602 25.36 33.4902 25.36H42.6602" stroke="#EF5656" stroke-width="3" stroke-linecap="round" stroke-linejoin="round"/>
</svg>
